<svg xmlns="http://www.w3.org/2000/svg" xmlns:xlink="http://www.w3.org/1999/xlink" width="500" zoomAndPan="magnify" viewBox="0 0 375 374.999991" height="500" preserveAspectRatio="xMidYMid meet" version="1.0"><defs><clipPath id="0e76b1ce04"><path d="M 60.484375 26.90625 L 314.734375 26.90625 L 314.734375 347.90625 L 60.484375 347.90625 Z M 60.484375 26.90625 " clip-rule="nonzero"/></clipPath></defs><rect x="-37.5" width="450" fill="#ffffff" y="-37.499999" height="449.999989" fill-opacity="1"/><g clip-path="url(#0e76b1ce04)"><path fill="#495797" d="M 148.386719 260.074219 C 152.632812 263.160156 155.402344 268.050781 155.402344 273.519531 C 155.402344 282.589844 148.066406 289.925781 139.183594 289.925781 C 130.109375 289.925781 122.773438 282.589844 122.773438 273.519531 C 122.773438 267.988281 125.542969 263.097656 129.917969 260.074219 L 129.917969 167.492188 C 129.917969 162.472656 133.972656 158.226562 139.183594 158.226562 C 144.203125 158.226562 148.453125 162.472656 148.453125 167.492188 L 148.453125 260.074219 Z M 244.210938 259.429688 C 249.101562 262.324219 252.316406 267.535156 252.316406 273.582031 C 252.316406 282.65625 244.980469 289.988281 236.101562 289.988281 C 227.027344 289.988281 219.691406 282.65625 219.691406 273.582031 C 219.691406 268.566406 221.941406 263.996094 225.675781 260.910156 L 225.675781 167.492188 C 225.675781 162.472656 229.730469 158.226562 234.941406 158.226562 C 239.960938 158.226562 244.210938 162.472656 244.210938 167.492188 Z M 187.515625 26.722656 C 222.585938 26.722656 254.441406 40.875 277.351562 63.910156 C 300.261719 86.8125 314.546875 118.660156 314.546875 153.722656 C 314.546875 188.660156 300.261719 220.441406 277.351562 243.34375 C 271.816406 248.878906 265.832031 253.898438 259.332031 258.464844 L 259.332031 239.484375 C 261.777344 237.363281 264.222656 235.109375 266.667969 232.664062 C 286.8125 212.527344 299.488281 184.605469 299.488281 153.722656 C 299.488281 122.714844 286.8125 94.789062 266.667969 74.652344 C 246.398438 54.386719 218.402344 41.839844 187.578125 41.839844 C 156.753906 41.839844 128.757812 54.324219 108.617188 74.652344 C 88.34375 94.789062 75.796875 122.714844 75.796875 153.722656 C 75.796875 184.605469 88.28125 212.527344 108.617188 232.664062 C 110.546875 234.789062 112.671875 236.71875 114.792969 238.519531 L 114.792969 257.691406 C 108.808594 253.445312 103.082031 248.75 97.742188 243.410156 C 74.832031 220.441406 60.671875 188.59375 60.671875 153.722656 C 60.671875 118.660156 74.832031 86.8125 97.675781 63.910156 C 120.777344 40.875 152.441406 26.722656 187.515625 26.722656 Z M 206.691406 292.046875 L 206.691406 169.808594 C 206.691406 159.0625 197.746094 150.183594 187.0625 150.183594 C 176.378906 150.183594 167.4375 159.128906 167.4375 169.808594 L 167.4375 292.113281 C 160.097656 297.773438 155.59375 306.71875 155.59375 316.816406 C 155.59375 334.382812 169.753906 348.472656 187.128906 348.472656 C 204.503906 348.472656 218.660156 334.316406 218.660156 316.816406 C 218.53125 306.652344 213.835938 297.773438 206.691406 292.046875 Z M 156.6875 146.710938 C 164.152344 138.28125 175.03125 132.878906 187.0625 132.878906 C 199.097656 132.878906 209.972656 138.21875 217.246094 146.710938 C 222.265625 143.109375 228.3125 141.050781 234.941406 141.050781 C 235.136719 141.050781 235.457031 141.050781 235.585938 141.050781 L 187.0625 59.984375 L 138.347656 140.984375 C 138.667969 140.984375 138.863281 140.984375 139.183594 140.984375 C 145.621094 141.050781 151.796875 143.171875 156.6875 146.710938 Z M 156.6875 146.710938 " fill-opacity="1" fill-rule="nonzero"/></g></svg>