<svg xmlns="http://www.w3.org/2000/svg" xmlns:xlink="http://www.w3.org/1999/xlink" width="500" zoomAndPan="magnify" viewBox="0 0 375 374.999991" height="500" preserveAspectRatio="xMidYMid meet" version="1.0"><defs><g/><clipPath id="99f63c0923"><path d="M 91.621094 28.425781 L 283.621094 28.425781 L 283.621094 270.675781 L 91.621094 270.675781 Z M 91.621094 28.425781 " clip-rule="nonzero"/></clipPath></defs><g clip-path="url(#99f63c0923)"><path fill="#495797" d="M 158.003906 204.523438 C 161.210938 206.855469 163.300781 210.550781 163.300781 214.679688 C 163.300781 221.53125 157.761719 227.070312 151.054688 227.070312 C 144.203125 227.070312 138.660156 221.53125 138.660156 214.679688 C 138.660156 210.5 140.75 206.808594 144.054688 204.523438 L 144.054688 134.601562 C 144.054688 130.8125 147.117188 127.605469 151.054688 127.605469 C 154.84375 127.605469 158.050781 130.8125 158.050781 134.601562 L 158.050781 204.523438 Z M 230.363281 204.039062 C 234.058594 206.226562 236.488281 210.160156 236.488281 214.730469 C 236.488281 221.578125 230.945312 227.121094 224.238281 227.121094 C 217.386719 227.121094 211.847656 221.578125 211.847656 214.730469 C 211.847656 210.9375 213.550781 207.488281 216.367188 205.15625 L 216.367188 134.601562 C 216.367188 130.8125 219.429688 127.605469 223.367188 127.605469 C 227.15625 127.605469 230.363281 130.8125 230.363281 134.601562 Z M 187.550781 28.289062 C 214.035156 28.289062 238.089844 38.976562 255.390625 56.375 C 272.691406 73.671875 283.480469 97.722656 283.480469 124.207031 C 283.480469 150.589844 272.691406 174.59375 255.390625 191.890625 C 251.210938 196.070312 246.691406 199.859375 241.785156 203.308594 L 241.785156 188.976562 C 243.628906 187.371094 245.476562 185.671875 247.324219 183.824219 C 262.535156 168.617188 272.109375 147.527344 272.109375 124.207031 C 272.109375 100.785156 262.535156 79.695312 247.324219 64.488281 C 232.015625 49.183594 210.875 39.707031 187.597656 39.707031 C 164.320312 39.707031 143.179688 49.132812 127.972656 64.488281 C 112.664062 79.695312 103.1875 100.785156 103.1875 124.207031 C 103.1875 147.527344 112.613281 168.617188 127.972656 183.824219 C 129.429688 185.429688 131.03125 186.886719 132.636719 188.246094 L 132.636719 202.726562 C 128.117188 199.519531 123.792969 195.972656 119.757812 191.941406 C 102.457031 174.59375 91.765625 150.542969 91.765625 124.207031 C 91.765625 97.722656 102.457031 73.671875 119.710938 56.375 C 137.15625 38.976562 161.066406 28.289062 187.550781 28.289062 Z M 202.03125 228.675781 L 202.03125 136.351562 C 202.03125 128.238281 195.277344 121.53125 187.210938 121.53125 C 179.144531 121.53125 172.386719 128.285156 172.386719 136.351562 L 172.386719 228.722656 C 166.847656 233 163.445312 239.753906 163.445312 247.382812 C 163.445312 260.648438 174.136719 271.289062 187.257812 271.289062 C 200.378906 271.289062 211.070312 260.597656 211.070312 247.382812 C 210.972656 239.703125 207.425781 233 202.03125 228.675781 Z M 164.273438 118.910156 C 169.910156 112.542969 178.121094 108.460938 187.210938 108.460938 C 196.296875 108.460938 204.511719 112.496094 210 118.910156 C 213.792969 116.1875 218.359375 114.632812 223.367188 114.632812 C 223.511719 114.632812 223.753906 114.632812 223.851562 114.632812 L 187.210938 53.410156 L 150.421875 114.585938 C 150.664062 114.585938 150.8125 114.585938 151.054688 114.585938 C 155.914062 114.632812 160.578125 116.234375 164.273438 118.910156 Z M 164.273438 118.910156 " fill-opacity="1" fill-rule="nonzero"/></g><g fill="#272b27" fill-opacity="1"><g transform="translate(47.763426, 332.355681)"><g><path d="M 40.832031 -29.078125 L 35.449219 -12.355469 L 29.296875 -29.078125 L 21.582031 -29.078125 L 15.402344 -12.273438 L 10.132812 -29.078125 L -0.164062 -29.078125 L 9.886719 0.0546875 L 19.414062 0.0546875 L 25.507812 -17.1875 L 31.496094 0.0546875 L 40.886719 0.0546875 L 51.128906 -29.078125 Z M 40.832031 -29.078125 "/></g></g></g><g fill="#272b27" fill-opacity="1"><g transform="translate(97.116589, 332.355681)"><g><path d="M 13.371094 -25.042969 L 13.042969 -29.078125 L 3.597656 -29.078125 L 3.597656 0 L 13.730469 0 L 13.730469 -13.316406 C 13.730469 -19.222656 16.367188 -20.648438 22.816406 -20.648438 L 22.816406 -29.40625 C 18.753906 -29.40625 15.019531 -27.210938 13.371094 -25.042969 Z M 13.371094 -25.042969 "/></g></g></g><g fill="#272b27" fill-opacity="1"><g transform="translate(118.768289, 332.355681)"><g><path d="M 8.703125 -31.878906 C 11.613281 -31.878906 14.085938 -34.296875 14.085938 -37.34375 C 14.085938 -40.308594 11.613281 -42.726562 8.703125 -42.726562 C 5.65625 -42.726562 3.183594 -40.308594 3.183594 -37.34375 C 3.183594 -34.296875 5.65625 -31.878906 8.703125 -31.878906 Z M 3.597656 0 L 13.675781 0 L 13.675781 -29.078125 L 3.597656 -29.078125 Z M 3.597656 0 "/></g></g></g><g fill="#272b27" fill-opacity="1"><g transform="translate(134.462389, 332.355681)"><g><path d="M 15.347656 0 L 21.527344 0 L 21.527344 -7.46875 L 18.945312 -7.46875 C 16.96875 -7.46875 15.980469 -8.429688 15.980469 -10.902344 L 15.980469 -21.472656 L 21.527344 -21.472656 L 21.527344 -29.078125 L 15.980469 -29.078125 L 15.980469 -38.25 L 7.03125 -38.25 L 7.03125 -35.257812 C 7.03125 -30.203125 4.941406 -29.078125 1.867188 -29.078125 L 0.21875 -29.078125 L 0.21875 -21.472656 L 5.792969 -21.472656 L 5.792969 -9.773438 C 5.792969 -3.542969 9.171875 0 15.347656 0 Z M 15.347656 0 "/></g></g></g><g fill="#272b27" fill-opacity="1"><g transform="translate(156.443541, 332.355681)"><g><path d="M 32.097656 -14.855469 C 32.042969 -25.316406 25.644531 -29.683594 17.160156 -29.683594 C 7.714844 -29.683594 1.289062 -24.136719 1.289062 -14.5 C 1.289062 -4.941406 7.46875 0.550781 17.492188 0.550781 C 24.464844 0.550781 29.984375 -2.855469 31.769531 -9.117188 L 22.542969 -10.296875 C 21.71875 -8.15625 19.90625 -7.195312 17.4375 -7.195312 C 14.25 -7.195312 11.640625 -8.925781 11.230469 -12.546875 L 31.988281 -12.546875 Z M 17.214844 -22.761719 C 19.960938 -22.761719 22.078125 -21.199219 22.40625 -18.175781 L 11.339844 -18.175781 C 11.945312 -21.472656 13.949219 -22.761719 17.214844 -22.761719 Z M 17.214844 -22.761719 "/></g></g></g><g fill="#272b27" fill-opacity="1"><g transform="translate(188.445545, 332.355681)"><g><path d="M 8.703125 -16.695312 C 11.699219 -16.695312 14.167969 -19.167969 14.167969 -22.160156 C 14.167969 -25.070312 11.699219 -27.566406 8.703125 -27.566406 C 5.792969 -27.566406 3.324219 -25.070312 3.324219 -22.160156 C 3.324219 -19.167969 5.792969 -16.695312 8.703125 -16.695312 Z M 8.703125 0.550781 C 11.699219 0.550781 14.167969 -1.921875 14.167969 -4.832031 C 14.167969 -7.824219 11.699219 -10.296875 8.703125 -10.296875 C 5.792969 -10.296875 3.324219 -7.824219 3.324219 -4.832031 C 3.324219 -1.921875 5.792969 0.550781 8.703125 0.550781 Z M 8.703125 0.550781 "/></g></g></g><g fill="#272b27" fill-opacity="1"><g transform="translate(204.414195, 332.355681)"><g><path d="M 23.449219 -29.628906 C 19.195312 -29.628906 15.816406 -28.144531 13.621094 -25.730469 L 13.621094 -42.175781 L 3.597656 -42.175781 L 3.597656 0 L 13.621094 0 L 13.621094 -15.183594 C 13.675781 -20.757812 16.96875 -21.71875 19.523438 -21.71875 C 22.105469 -21.71875 24.136719 -20.648438 24.136719 -16.859375 L 24.136719 0 L 34.1875 0 L 34.1875 -18.453125 C 34.1875 -25.921875 30.425781 -29.628906 23.449219 -29.628906 Z M 23.449219 -29.628906 "/></g></g></g><g fill="#272b27" fill-opacity="1"><g transform="translate(240.012711, 332.355681)"><g><path d="M 32.097656 -14.855469 C 32.042969 -25.316406 25.644531 -29.683594 17.160156 -29.683594 C 7.714844 -29.683594 1.289062 -24.136719 1.289062 -14.5 C 1.289062 -4.941406 7.46875 0.550781 17.492188 0.550781 C 24.464844 0.550781 29.984375 -2.855469 31.769531 -9.117188 L 22.542969 -10.296875 C 21.71875 -8.15625 19.90625 -7.195312 17.4375 -7.195312 C 14.25 -7.195312 11.640625 -8.925781 11.230469 -12.546875 L 31.988281 -12.546875 Z M 17.214844 -22.761719 C 19.960938 -22.761719 22.078125 -21.199219 22.40625 -18.175781 L 11.339844 -18.175781 C 11.945312 -21.472656 13.949219 -22.761719 17.214844 -22.761719 Z M 17.214844 -22.761719 "/></g></g></g><g fill="#272b27" fill-opacity="1"><g transform="translate(272.014715, 332.355681)"><g><path d="M 13.371094 -25.042969 L 13.042969 -29.078125 L 3.597656 -29.078125 L 3.597656 0 L 13.730469 0 L 13.730469 -13.316406 C 13.730469 -19.222656 16.367188 -20.648438 22.816406 -20.648438 L 22.816406 -29.40625 C 18.753906 -29.40625 15.019531 -27.210938 13.371094 -25.042969 Z M 13.371094 -25.042969 "/></g></g></g><g fill="#272b27" fill-opacity="1"><g transform="translate(293.666409, 332.355681)"><g><path d="M 32.097656 -14.855469 C 32.042969 -25.316406 25.644531 -29.683594 17.160156 -29.683594 C 7.714844 -29.683594 1.289062 -24.136719 1.289062 -14.5 C 1.289062 -4.941406 7.46875 0.550781 17.492188 0.550781 C 24.464844 0.550781 29.984375 -2.855469 31.769531 -9.117188 L 22.542969 -10.296875 C 21.71875 -8.15625 19.90625 -7.195312 17.4375 -7.195312 C 14.25 -7.195312 11.640625 -8.925781 11.230469 -12.546875 L 31.988281 -12.546875 Z M 17.214844 -22.761719 C 19.960938 -22.761719 22.078125 -21.199219 22.40625 -18.175781 L 11.339844 -18.175781 C 11.945312 -21.472656 13.949219 -22.761719 17.214844 -22.761719 Z M 17.214844 -22.761719 "/></g></g></g></svg>